<svg xmlns="http://www.w3.org/2000/svg" width="40" height="40" fill="none"><g clip-path="url(#A)"><path d="M16.667 39.778C7.222 38.111 0 29.889 0 20 0 9 9 0 20 0s20 9 20 20c0 9.889-7.222 18.111-16.667 19.778l-1.111-.889h-4.444l-1.111.889z" fill="#1877f1"/><path d="M27.778 25.556L28.667 20h-5.333v-3.889c0-1.556.555-2.778 3-2.778h2.555V8.222c-1.444-.222-3-.444-4.444-.444-4.556 0-7.778 2.778-7.778 7.778V20h-5v5.556h5v14.111A16.96 16.96 0 0020 40a16.96 16.96 0 003.333-.333V25.556h4.444z" fill="#fff"/></g><defs><clipPath id="A"><path fill="#fff" d="M0 0h40v40H0z"/></clipPath></defs></svg>