<svg width="48" height="48" fill="none" xmlns="http://www.w3.org/2000/svg"><g clip-path="url(#clip0_2_3947)"><path d="M17.064 10.318l.719-.8 1.756-2.079 2.717-1.52.478-.8.48-1.36V2.64l.799-.88.479-1.12h.958l1.757.88 1.115 1.92.16 2.24 2.636 1.44 1.52 1.12 1.358 1.759 1.597 3.76.64 2.4.4 2.879.398 2.72 1.358 1.202.719 2.078.719 2 .24 2.158-.96 1.92-1.357 1.279-1.757.32-.32 1.44-.798 2-1.677 2-1.838 1.599-2.472.96-2.795.72h-4.556l-3.355-.401-3.834-1.28-2.236-1.119-1.598-1.124-1.118-.876-1.119-1.36-.798-1.12.32-1.679 1.358-.8v-1.2l.558-1.92 1.12-2.24 1.037-1.839 1.038-1.519 1.038-.96.799-.56v-1.36l.24-1.6.239-2.559.48-2.16.638-1.999.72-1.44z" fill="#FACD00" stroke="#000" stroke-width=".196"/><path d="M40.373 27.617v-.048A11.443 11.443 0 0038.893 23a7.755 7.755 0 00-.772-1.095 1.17 1.17 0 00-.836-.41 84.823 84.823 0 00-.216-2.07c-.018-.144-.034-.283-.05-.428l-.04-.308a.251.251 0 00-.013-.095c-.007-.068-.017-.137-.026-.205a.786.786 0 00-.016-.116c-.009-.062-.018-.123-.026-.189-.007-.065-.011-.078-.018-.118l-.027-.18c-.01-.06-.011-.077-.017-.116l-.031-.188a.559.559 0 00-.016-.103l-.036-.22a14.764 14.764 0 00-.061-.348l-.014-.078c-.014-.067-.024-.134-.037-.2l-.016-.094a4.566 4.566 0 00-.036-.17c-.013-.056-.014-.072-.02-.11L36.534 16a2.368 2.368 0 01-.023-.106 2.73 2.73 0 00-.036-.16c-.014-.049-.014-.066-.021-.099l-.042-.181a20.672 20.672 0 00-.078-.33l-.01-.041c-.017-.07-.032-.141-.05-.21l-.025-.087c-.012-.053-.026-.106-.04-.16l-.025-.095c-.014-.05-.027-.095-.04-.148-.012-.052-.018-.064-.027-.094a2.882 2.882 0 01-.04-.144c-.012-.05-.02-.063-.027-.095l-.045-.151-.024-.083a9.16 9.16 0 00-.06-.19.055.055 0 00-.01-.038l-.07-.222-.024-.074c-.018-.049-.034-.099-.05-.148l-.028-.087c-.016-.043-.03-.088-.047-.132l-.03-.088c-.01-.031-.03-.085-.047-.129l-.03-.086-.048-.13-.03-.08-.056-.145a.164.164 0 00-.023-.06l-.078-.198-.024-.057-.057-.141-.032-.075-.051-.12c-.011-.027-.025-.053-.035-.08l-.05-.113-.035-.079-.05-.11a1.382 1.382 0 00-.037-.077 2.178 2.178 0 01-.053-.117c-.017-.04-.021-.044-.033-.065l-.08-.161a.468.468 0 00-.019-.038l-.075-.149-.033-.063-.056-.108-.038-.072-.055-.094-.038-.071c-.018-.031-.035-.063-.055-.095l-.037-.07a3.495 3.495 0 01-.057-.095l-.038-.066-.066-.12c0-.016-.017-.03-.025-.045a3.324 3.324 0 01-.095-.16l-.033-.052-.062-.095-.04-.061-.058-.088-.042-.062-.055-.083-.044-.063-.057-.081-.042-.06c-.02-.03-.042-.058-.063-.087-.02-.03-.024-.033-.037-.051l-.094-.132-.028-.038-.072-.095-.043-.054-.06-.075-.046-.056-.058-.071-.046-.056-.057-.069-.047-.053-.07-.07-.041-.048-.078-.086-.034-.037-.095-.103-.043-.044-.064-.067-.046-.046-.06-.063-.049-.048-.06-.057-.048-.047-.062-.06-.046-.043-.07-.063-.038-.035-.107-.095-.039-.032-.116-.1-.064-.054-.05-.04-.06-.05-.05-.037-.063-.048-.049-.04-.067-.048-.045-.034-.094-.07-.04-.03-.083-.057-.047-.031-.065-.044-.05-.034-.063-.041-.05-.032-.064-.04-.05-.03-.065-.04-.048-.03-.076-.046-.036-.02-.11-.063-.043-.022-.07-.038-.048-.027-.066-.035-.05-.025-.063-.032-.048-.028-.065-.03-.128-.077-.041-.02-.11-.048-.035-.016-.079-.034-.046-.02-.068-.029-.05-.019-.063-.025-.05-.019-.065-.026-.047-.017-.07-.026-.045-.016-.12-.04-.103-.036-.028-.007a4.689 4.689 0 00-.886-3.7C27.28.617 26.258 0 25.398 0a1.46 1.46 0 00-1.117.48c-.256.28-.405.642-.42 1.021a1.436 1.436 0 00-1.198 1.057 1.501 1.501 0 00.212 1.25c-.346.32-.655.817-.689 1.624-.503.176-.993.39-1.463.641a6.96 6.96 0 00-.32.18l-.27.16a9.9 9.9 0 00-.781.542c-.066.05-.129.104-.189.161-.12.096-.239.197-.357.302-.117.105-.267.243-.4.373-.19.189-.37.378-.549.584-.085.094-.17.2-.255.305-.085.104-.131.16-.195.248l-.11.142a10.474 10.474 0 00-.626.942c-.076.128-.15.258-.224.391-.055.095-.11.2-.16.302-.095.19-.197.389-.291.594-.18.385-.347.795-.502 1.228-.094.264-.189.537-.27.821a17.701 17.701 0 00-.313 1.161 18.711 18.711 0 00-.281 1.404c-.064.39-.122.794-.174 1.213-.055.48-.1.98-.134 1.499a63.258 63.258 0 00-.115 2.463v.17c-.249 0-1.006 0-3.035 3.32-1.17 1.923-2.152 3.979-2.556 5.367-.16.526-.306 1.201-.149 1.693H8.45l-.08.016-.035.007-.073.016-.034.01-.078.02-.025.009c-.034.01-.067.02-.1.033H8.01l-.08.032-.03.013-.063.029-.031.016-.063.034-.026.014-.08.051a1.254 1.254 0 00-.08.06l-.022.017-.053.046-.025.024-.073.072-.049.06-.014.019c-.02.027-.042.055-.061.083l-.013.02c-.014.023-.029.047-.041.072a.532.532 0 00-.05.1.241.241 0 01-.017.034l-.048.094-.014.034c-.012.037-.025.075-.036.115a1.191 1.191 0 00-.04.297c.017.49.141.97.364 1.408.139.302.299.594.48.873.08.122.159.245.253.37.583.789 1.264 1.5 2.028 2.115a15.308 15.308 0 002.17 1.474c1.716.96 3.887 1.776 6.548 2.21.427.07.87.129 1.33.178 1.017.108 2.039.162 3.061.16a21.383 21.383 0 003.577-.283c.42-.072.824-.16 1.214-.253 2.526-.626 4.41-1.773 5.807-3.263a13.054 13.054 0 00.454-.515l.14-.174a11.844 11.844 0 001.37-2.226c.058-.12.114-.24.16-.363.036-.078.069-.16.103-.235.07-.17.138-.34.203-.512.046-.122.094-.247.133-.378.041-.114.079-.227.115-.342l.102-.32a1.13 1.13 0 00.537-.053 5.078 5.078 0 001.776-1.02 4.295 4.295 0 001.233-1.928 5.99 5.99 0 00.215-2.39zM24.831 4.118a.03.03 0 00.02-.006.026.026 0 00.012-.02.028.028 0 000-.02.025.025 0 00-.017-.013c-.72-.337-1.455-.662-1.295-1.25.077-.283.319-.396.628-.396.474.035.934.173 1.35.402a.02.02 0 00.016 0 .027.027 0 00.017-.004.043.043 0 00.011-.015.029.029 0 000-.018.024.024 0 00-.009-.015c-.522-.536-1.087-1.102-.596-1.665a.543.543 0 01.43-.16c.999 0 2.967 1.671 2.587 4.101l-.047-.01-.063-.012-.046-.01-.066-.013-.116-.02h-.037l-.106-.018h-.02l-.088-.013h-.039l-.069-.01h-.15l-.065-.007h-.147l-.085-.008h-1.389l-.205.009h-.014l-.188.013h-.021l-.176.014h-.028l-.17.018h-.02l-.171.021h-.012l-.175.022-.24.036-.244.042-.065.013c-.16.029-.306.06-.463.095l-.079.02-.034.007c.185-.985.99-1.071 1.684-1.11zM9.955 28.928a30.082 30.082 0 012.336-4.401c1.05-1.634 1.661-2.19 1.872-2.305a.125.125 0 01.04-.02c.257.013.59.306.882.772.009.017.02.033.03.049.86 1.43 1.188 3.968.25 5.738-.175.336-.39.65-.638.938a5.414 5.414 0 01-2.237 1.5 6.225 6.225 0 01-.531.168c-1.244.328-2.264.19-2.624-.01-.03-.084-.136-.612.62-2.428zm26.493-.117a20.792 20.792 0 01-.652 3.679c-.094.328-.188.647-.297.96a11.377 11.377 0 01-2.17 3.807 10.033 10.033 0 01-3.875 2.662c-1.732.68-3.819 1.025-6.208 1.025a26.95 26.95 0 01-3.424-.208c-.45-.057-.895-.126-1.33-.206a19.24 19.24 0 01-4.654-1.46c-2.02-.945-3.742-2.26-4.846-3.712-1.02-1.337-1.086-2.185-1.049-2.324.085-.3.263-.533 1.671-.533h.76c1.047 0 1.842-.142 2.492-.448a6.11 6.11 0 003.33-2.854c1.132-2.142.704-5.027-.275-6.657a3.27 3.27 0 00-.807-.936c.022-.907.06-1.882.126-2.922.283-4.462 1.51-7.842 3.641-10.055a9.226 9.226 0 013.662-2.326 9.988 9.988 0 011.861-.445c.492-.07.988-.104 1.485-.105a8.837 8.837 0 012.692.4 8.007 8.007 0 013.108 1.859c2.3 2.186 3.78 5.918 4.4 11.094.1.844.203 1.767.283 2.74.191 2.192.289 4.632.076 6.965zm3.028-.31a4.553 4.553 0 01-.136.995 3.53 3.53 0 01-.45 1.057c-.08.127-.17.248-.267.363-.047.056-.098.11-.152.16-.053.048-.108.107-.16.16-.05.053-.108.095-.16.14a4.006 4.006 0 01-.897.538c-.123.055-.25.104-.377.147a21.052 21.052 0 00.316-1.612c.013-.088.027-.176.038-.264.033-.224.063-.451.09-.679l.049-.479a46.94 46.94 0 00.092-1.2c.007-.16.016-.32.021-.48.006-.16.012-.32.015-.48v-1.681c0-.16 0-.32-.013-.48-.013-.161-.011-.32-.018-.48-.006-.161-.012-.32-.02-.48a51.532 51.532 0 00-.084-1.294h.017c.013.01.025.02.035.033.12.14.236.29.35.452.085.12.168.247.251.378l.081.134c.183.31.348.63.493.96a10.738 10.738 0 01.477 1.309 10.891 10.891 0 01.382 1.936c.012.095.02.19.024.284.004.203.008.386.003.564z" fill="#383838"/><path d="M22.06 44.954a1.022 1.022 0 01-.943-.67l-.943-2.56c-.457-.05-.9-.11-1.33-.179.437 1.215.975 2.71 1.127 3.11.05.133 0 .299-.247.299h-1.452s-.44.97.754.935c3.302-.099 2.943 2.551 3.983 2.048 1-.48-.904-2.05-.875-2.048 3.801.48 2.587-.939 2.587-.939s-1.935.004-2.66.004zM29.193 43.65a.462.462 0 01-.433-.292c-.174-.438-.503-1.37-.735-2.014-.39.094-.798.18-1.214.252.25.695.599 1.656.628 1.749.069.212.019.293-.357.293h-1.415s-.407.912 1.154.912c3.185 0 2.522 2.68 3.748 1.994.782-.438-.671-1.674-.788-1.822-.067-.083-.013-.2.16-.174 3.253.498 2.452-.91 2.452-.91s-2.245.012-3.2.012zM24.237 16.345a.712.712 0 10-.328-1.386.712.712 0 00.328 1.386zM31.971 16.25a.713.713 0 10-.75-1.21.713.713 0 00.75 1.21zM29.919 18.14l-1.804-.748a.55.55 0 00-.378 0l-1.807.748a.303.303 0 00-.215.256.308.308 0 00.15.302l1.83 1.188c.067.048.147.071.228.067.08.004.16-.02.226-.067l1.833-1.188a.307.307 0 00.083-.463.32.32 0 00-.146-.095z" fill="#383838"/></g><defs><clipPath id="clip0_2_3947"><path fill="#fff" d="M0 0h48v48H0z"/></clipPath></defs></svg>