<svg xmlns="http://www.w3.org/2000/svg" width="295" height="300"><g fill="#2fb140" fill-rule="evenodd"><path d="M136.918.55c-16.949 1.42-35.776 6.779-51.717 14.748C56.48 29.634 33.897 52.351 19.88 80.932-.733 122.885-.137 169.695 21.484 213.435l3.436 6.916L12.231 258C2.703 286.351-.321 295.832.046 296.382c.275.412.916.779 1.466.87.733.137.962.458.962 1.511 0 1.237.137 1.374 1.053 1.054l51.442-16.397 25.194-8.061 6.642 3.115c26.065 12.457 52.633 16.946 80.346 13.557 41.319-5.039 78.514-28.031 101.647-62.932 18.735-28.214 28.126-63.206 25.423-95.13-2.474-29.588-13.284-56.84-31.745-79.924-18.14-22.718-43.975-39.939-72.238-48.183-6.047-1.786-16.903-4.031-23.316-4.855-5.268-.687-23.774-.962-30.004-.458zm29.317 30.87c26.568 3.985 49.197 15.298 68.024 34.168 18.323 18.275 29.225 39.939 32.34 64.351.962 7.603 1.008 22.214.046 29.771-3.252 25.878-14.933 49.603-33.531 68.244-13.742 13.832-28.767 23.13-46.953 29.13-12.047 3.939-22.308 5.542-36.188 5.542-11.406.046-17.957-.687-27.714-3.069-13.284-3.206-22.079-6.962-36.967-15.756-1.145-.687-1.97-.458-22.354 6.046l-21.53 6.504c-.229-.137 2.611-9.16 6.23-20.061 3.619-10.855 6.596-20.29 6.596-20.885s-1.191-2.977-2.703-5.267c-16.307-25.328-22.491-52.947-18.323-82.031 2.428-16.992 8.245-31.924 17.911-45.847 20.155-29.176 51.808-47.817 87.401-51.481 5.451-.55 22.262-.183 27.714.641z" fill-rule="nonzero"/><path d="M97.524 73.969c-2.84.962-5.222 2.656-8.749 6.321-7.787 8.153-11.452 16.672-11.956 28.122-.595 13.145 4.535 27.664 16.124 45.573 19.377 29.908 38.845 47.45 64.589 58.168 13.193 5.496 21.804 8.336 27.484 9.16 4.26.55 12.689-.687 17.911-2.702 4.718-1.832 11.314-6.137 14.246-9.344 4.489-4.947 8.383-15.939 8.383-23.771 0-3.252-.092-3.664-1.237-4.947-2.336-2.565-31.378-17.725-34.814-18.183-3.115-.412-4.352.458-9.482 6.458-7.97 9.298-10.444 11.725-11.864 11.725-1.649 0-12.689-5.542-17.957-9.023-12.872-8.519-23.591-20.198-31.974-35.038-.687-1.191-1.237-2.336-1.237-2.611s1.466-2.107 3.252-4.031c4.306-4.718 5.726-6.87 7.558-11.313 2.107-4.992 2.016-6.321-.779-13.878l-7.512-20.336c-2.29-6.137-4.031-8.84-6.367-9.802-2.153-.916-13.376-1.282-15.62-.55z"/></g></svg>